#!OML:ASF E:\I on waltz\AllaLogoMonkeySwing\Project 1\Capture day 1\Session 1\Subject1.ASF
:FULLY-SPECIFIED
:DEGREES
661
root -0.349661 17.912 -3.40329 182.09 176.273 178.797
lowerback 5.04155 -1.3543 -3.33965
upperback -0.43053 -1.95078 1.86046
thorax -3.09632 -0.900816 3.94733
lowerneck -7.79386 -8.82618 -8.75941
upperneck 14.1329 -11.5603 4.84584
head 6.36907 -5.73023 1.97565
rclavicle -7.05686e-015 4.07509e-015
rhumerus -31.8078 -25.7369 -70.8082
rradius 24.4708
rwrist 11.5609
rhand -16.0843 -47.4687
rfingers 7.12502
rthumb 10.1188 -77.2053
lclavicle -7.05686e-015 4.07509e-015
lhumerus -41.0943 26.4577 74.004
lradius 37.9325
lwrist -4.88078
lhand -15.2649 -5.52888
lfingers 7.12502
lthumb 10.9093 24.1677
rfemur -0.476248 0.355982 17.9299
rtibia 16.1648
rfoot -14.6515 -9.904
rtoes 9.8846
lfemur 2.91836 -1.97019 -13.7095
ltibia 10.0433
lfoot -13.9055 2.99151
ltoes -33.036
662
root -0.349776 17.9113 -3.40013 182.078 176.352 178.757
lowerback 5.10046 -1.34451 -3.32087
upperback -0.487357 -1.9384 1.86305
thorax -3.18997 -0.891793 3.94185
lowerneck -7.73865 -8.8189 -8.83455
upperneck 14.1089 -11.5549 4.91282
head 6.36022 -5.72789 2.01129
rclavicle -1.11568e-014 -2.88238e-014
rhumerus -31.9396 -25.6827 -70.7855
rradius 24.4892
rwrist 11.2571
rhand -15.8244 -46.7284
rfingers 7.12502
rthumb 10.3695 -76.4527
lclavicle -1.11568e-014 -2.88238e-014
lhumerus -41.2088 26.5968 73.9404
lradius 37.8001
lwrist -4.98756
lhand -15.1032 -5.5382
lfingers 7.12502
lthumb 11.0652 24.1501
rfemur -0.485554 0.366165 17.9709
rtibia 16.2034
rfoot -14.7422 -9.85491
rtoes 9.73163
lfemur 2.96676 -1.96037 -13.6709
ltibia 10.0191
lfoot -13.8916 3.06306
ltoes -33.1535
663
root -0.349118 17.9107 -3.3962 182.068 176.378 178.728
lowerback 5.15466 -1.34526 -3.2805
upperback -0.549946 -1.9394 1.84084
thorax -3.28727 -0.889866 3.89928
lowerneck -7.76968 -8.84121 -8.85446
upperneck 14.1777 -11.5827 4.90775
head 6.39037 -5.74218 2.0072
rclavicle 2.04375e-015 2.68359e-015
rhumerus -32.0324 -25.465 -70.8891
rradius 24.4371
rwrist 10.3204
rhand -15.0902 -46.006
rfingers 7.12502
rthumb 11.0778 -75.6936
lclavicle 2.04375e-015 2.68359e-015
lhumerus -41.3421 26.6248 73.8706
lradius 37.7192
lwrist -4.98292
lhand -14.7894 -5.69052
lfingers 7.12502
lthumb 11.3679 23.9814
rfemur -0.456542 0.374729 18.0058
rtibia 16.1894
rfoot -14.8093 -9.86543
rtoes 9.6542
lfemur 3.00917 -1.92745 -13.6408
ltibia 9.96656
lfoot -13.8527 3.08909
ltoes -33.8566
664
root -0.34769 17.9106 -3.39184 182.066 176.378 178.681
lowerback 5.14949 -1.33653 -3.2129
upperback -0.584271 -1.92434 1.81457
thorax -3.32428 -0.882407 3.83327
lowerneck -7.90641 -8.88863 -8.78952
upperneck 14.3039 -11.6399 4.84064
head 6.45003 -5.76855 1.96214
rclavicle 1.53437e-014 8.05078e-015
rhumerus -32.0367 -25.2293 -71.045
rradius 24.346
rwrist 8.99352
rhand -13.6011 -45.5369
rfingers 7.12502
rthumb 12.5137 -75.1422
lclavicle 1.53437e-014 8.05078e-015
lhumerus -41.4139 26.6066 73.823
lradius 37.6822
lwrist -4.94134
lhand -13.9666 -5.66754
lfingers 7.12502
lthumb 12.1613 23.959
rfemur -0.415583 0.357788 18.0589
rtibia 16.1399
rfoot -14.7584 -9.81435
rtoes 9.83427
lfemur 3.04159 -1.94694 -13.5973
ltibia 9.94108
lfoot -13.8615 3.10832
ltoes -34.1214
665
root -0.346466 17.9114 -3.38762 182.096 176.423 178.694
lowerback 5.09641 -1.33438 -3.24865
upperback -0.619762 -1.9232 1.79319
thorax -3.33088 -0.880662 3.83014
lowerneck -7.97455 -8.8937 -8.73052
upperneck 14.3316 -11.6451 4.80518
head 6.46509 -5.76927 1.93808
rclavicle -3.68373e-015 -1.68967e-015
rhumerus -32.0271 -25.2977 -71.0418
rradius 24.2986
rwrist 8.30244
rhand -11.4095 -45.2243
rfingers 7.12502
rthumb 14.626 -74.6885
lclavicle -3.68373e-015 -1.68967e-015
lhumerus -41.4855 26.6747 73.7449
lradius 37.6568
lwrist -4.78408
lhand -12.6869 -5.37931
lfingers 7.12502
lthumb 13.395 24.1701
rfemur -0.420327 0.360223 18.034
rtibia 16.0993
rfoot -14.7154 -9.72496
rtoes 9.93748
lfemur 3.04813 -1.97645 -13.6301
ltibia 9.92276
lfoot -13.8687 3.17589
ltoes -34.0509
666
root -0.345408 17.9121 -3.38303 182.137 176.479 178.744
lowerback 5.04763 -1.33884 -3.33177
upperback -0.673344 -1.93369 1.78248
thorax -3.35578 -0.883008 3.86627
lowerneck -8.02255 -8.89149 -8.70475
upperneck 14.3579 -11.6324 4.74015
head 6.47535 -5.76569 1.91253
rclavicle 4.8081e-015 1.26228e-014
rhumerus -32.0586 -25.645 -70.8701
rradius 24.2248
rwrist 8.11317
rhand -9.00843 -44.7637
rfingers 7.12502
rthumb 16.9383 -74.0451
lclavicle 4.8081e-015 1.26228e-014
lhumerus -41.5956 26.6691 73.7288
lradius 37.6581
lwrist -4.3199
lhand -11.1632 -4.84211
lfingers 7.12502
lthumb 14.8633 24.6047
rfemur -0.42354 0.373191 17.9663
rtibia 16.0438
rfoot -14.7032 -9.6955
rtoes 9.79441
lfemur 3.04856 -1.99655 -13.7071
ltibia 9.8856
lfoot -13.8255 3.25853
ltoes -34.2266
667
root -0.344659 17.9128 -3.37703 182.149 176.509 178.706
lowerback 5.00131 -1.3425 -3.31581
upperback -0.709753 -1.93603 1.79625
thorax -3.36727 -0.883518 3.87101
lowerneck -8.0494 -8.91443 -8.72686
upperneck 14.3323 -11.6615 4.76442
head 6.47663 -5.77865 1.91962
rclavicle -1.6642e-014 6.85807e-015
rhumerus -32.1139 -25.8872 -70.7515
rradius 24.1323
rwrist 7.93714
rhand -6.79053 -44.2279
rfingers 7.12502
rthumb 19.0723 -73.3128
lclavicle -1.6642e-014 6.85807e-015
lhumerus -41.656 26.4476 73.846
lradius 37.6293
lwrist -3.64621
lhand -9.50318 -4.16133
lfingers 7.12502
lthumb 16.462 25.1602
rfemur -0.373718 0.416792 18.0179
rtibia 15.9631
rfoot -14.6587 -9.73405
rtoes 9.54406
lfemur 3.08808 -2.01825 -13.6679
ltibia 9.84743
lfoot -13.8086 3.29125
ltoes -33.9303
668
root -0.345038 17.9143 -3.37048 182.13 176.528 178.649
lowerback 4.98833 -1.34898 -3.30299
upperback -0.73763 -1.94296 1.81793
thorax -3.38791 -0.886099 3.88703
lowerneck -8.019 -8.92985 -8.75323
upperneck 14.2441 -11.6891 4.83376
head 6.451 -5.78908 1.94533
rclavicle -1.02312e-014 2.50469e-014
rhumerus -32.1709 -26.0594 -70.7095
rradius 23.9623
rwrist 7.95257
rhand -5.0429 -43.6193
rfingers 7.12502
rthumb 20.7522 -72.5297
lclavicle -1.02312e-014 2.50469e-014
lhumerus -41.6904 26.1938 73.994
lradius 37.513
lwrist -3.05945
lhand -7.92308 -3.71783
lfingers 7.12502
lthumb 17.9829 25.4708
rfemur -0.282303 0.521229 18.1154
rtibia 15.8642
rfoot -14.6013 -9.82524
rtoes 9.40268
lfemur 3.16094 -1.98877 -13.5838
ltibia 9.78416
lfoot -13.8125 3.28073
ltoes -33.4405
669
root -0.345671 17.9157 -3.36505 182.137 176.546 178.602
lowerback 4.99825 -1.35602 -3.32899
upperback -0.809102 -1.95343 1.85421
thorax -3.46466 -0.887508 3.94225
lowerneck -7.97414 -8.93028 -8.75694
upperneck 14.2352 -11.6859 4.79009
head 6.43787 -5.79189 1.93478
rclavicle 1.40392e-015 9.34288e-015
rhumerus -32.2839 -26.2235 -70.6711
rradius 23.7069
rwrist 8.09972
rhand -3.95722 -42.9269
rfingers 7.12502
rthumb 21.795 -71.7197
lclavicle 1.40392e-015 9.34288e-015
lhumerus -41.793 26.0052 74.1593
lradius 37.3668
lwrist -2.51255
lhand -6.48876 -3.60663
lfingers 7.12502
lthumb 19.3625 25.4494
rfemur -0.226398 0.615014 18.1967
rtibia 15.7683
rfoot -14.6256 -9.90187
rtoes 9.36333
lfemur 3.18502 -1.95541 -13.5128
ltibia 9.73299
lfoot -13.801 3.28227
ltoes -33.4012
670
root -0.345364 17.9166 -3.35931 182.163 176.593 178.487
lowerback 4.96509 -1.36036 -3.27007
upperback -0.891102 -1.9533 1.90388
thorax -3.53123 -0.885272 3.96146
lowerneck -7.86028 -8.93925 -8.82309
upperneck 14.1618 -11.7087 4.86832
head 6.40542 -5.80313 1.97326
rclavicle -6.9264e-015 -7.05686e-015
rhumerus -32.3874 -26.1445 -70.7873
rradius 23.4377
rwrist 8.10295
rhand -3.39793 -42.1561
rfingers 7.12502
rthumb 22.332 -70.8855
lclavicle -6.9264e-015 -7.05686e-015
lhumerus -41.9294 25.816 74.3375
lradius 37.207
lwrist -2.0786
lhand -5.00918 -3.88822
lfingers 7.12502
lthumb 20.7846 25.0186
rfemur -0.197189 0.663881 18.337
rtibia 15.6694
rfoot -14.7206 -9.91447
rtoes 9.1325
lfemur 3.19743 -1.95443 -13.3727
ltibia 9.69354
lfoot -13.7758 3.32887
ltoes -33.3537
671
root -0.34384 17.9175 -3.35304 182.168 176.658 178.396
lowerback 4.90972 -1.37019 -3.21016
upperback -0.93905 -1.96062 1.92637
thorax -3.55021 -0.888743 3.95078
lowerneck -7.7727 -8.93115 -8.89066
upperneck 14.0646 -11.72 5.04089
head 6.37481 -5.80166 2.04184
rclavicle 3.28616e-015 -1.07344e-014
rhumerus -32.4086 -25.9115 -71.0778
rradius 23.1023
rwrist 8.16679
rhand -3.33702 -40.9922
rfingers 7.12502
rthumb 22.3905 -69.7146
lclavicle 3.28616e-015 -1.07344e-014
lhumerus -42.039 25.6233 74.5089
lradius 37.0118
lwrist -1.92604
lhand -3.60839 -4.51546
lfingers 7.12502
lthumb 22.13 24.238
rfemur -0.132095 0.668728 18.4265
rtibia 15.5373
rfoot -14.6658 -9.86384
rtoes 9.05682
lfemur 3.25388 -1.94499 -13.2754
ltibia 9.62448
lfoot -13.7263 3.39893
ltoes -33.3208
